<svg xmlns="http://www.w3.org/2000/svg" xmlns:xlink="http://www.w3.org/1999/xlink" viewBox="0 0 89.42 29.341">
  <defs>
    <style>
      .cls-1 {
        fill: #fff;
      }
    </style>
  </defs>
  <g class="cls-2">
    <g transform="translate(0.414 0)">
      <g transform="translate(0 0)">
        <path class="cls-1" d="M.616,13.585a7.823,7.823,0,0,1,1.651-2.442A7.728,7.728,0,0,1,4.723,9.493a7.438,7.438,0,0,1,2.983-.6,7.41,7.41,0,0,1,3,.6,7.809,7.809,0,0,1,2.455,1.651,7.727,7.727,0,0,1,1.665,2.428,7.457,7.457,0,0,1,.6,3v7.713H12.367V16.568a4.65,4.65,0,0,0-.361-1.8,4.459,4.459,0,0,0-1-1.471,4.819,4.819,0,0,0-1.484-1,4.719,4.719,0,0,0-1.817-.361,4.65,4.65,0,0,0-1.8.361,4.459,4.459,0,0,0-1.471,1,4.924,4.924,0,0,0-1,1.471,4.6,4.6,0,0,0-.361,1.8v7.713H.02V16.568A7.581,7.581,0,0,1,.616,13.585Z" transform="translate(-0.02 -2.695)"/>
        <path class="cls-1" d="M35.619,18.861l2.164,2.164-1.068,1.068a7.63,7.63,0,0,1-5.452,2.261,7.567,7.567,0,0,1-2.941-.583,7.408,7.408,0,0,1-2.5-1.679,7.294,7.294,0,0,1-1.679-2.553,8.09,8.09,0,0,1-.555-2.9,7.731,7.731,0,0,1,.555-2.886,7.663,7.663,0,0,1,4.231-4.231,7.674,7.674,0,0,1,5.8,0,7.531,7.531,0,0,1,2.553,1.692L37.8,12.285l-8.532,8.532a4.565,4.565,0,0,0,5.313-.888ZM27.975,13.34a4.566,4.566,0,0,0-.888,5.313L28.336,17.4c.555-.555,1.151-1.151,1.776-1.79s1.235-1.221,1.817-1.8,1.04-1.013,1.36-1.332a4.625,4.625,0,0,0-2.761-.444A4.368,4.368,0,0,0,27.975,13.34Z" transform="translate(-7.125 -2.713)"/>
        <path class="cls-1" d="M54.581,18.526v3.052H53.069a7.486,7.486,0,0,1-2.983-.6,7.794,7.794,0,0,1-4.134-4.134,7.486,7.486,0,0,1-.6-2.983V.02h3.052V6.207h6.173V9.259H48.408v4.606a4.719,4.719,0,0,0,.361,1.817,4.378,4.378,0,0,0,1,1.484,4.5,4.5,0,0,0,1.5,1,4.719,4.719,0,0,0,1.817.361Z" transform="translate(-13.685 -0.02)"/>
        <g transform="translate(43.269 1.776)">
          <path class="cls-1" d="M108.433,12.732a3.712,3.712,0,0,0-2.178,1.11,3.813,3.813,0,0,0-1.165,2.8,3.869,3.869,0,0,0,.4,1.72L106.56,17.3l1.512-1.512c.541-.527,1.054-1.04,1.554-1.526s.874-.86,1.151-1.138A3.9,3.9,0,0,0,108.433,12.732Z" transform="translate(-74.958 -5.615)"/>
          <path class="cls-1" d="M90.262,12.732a3.712,3.712,0,0,0-2.178,1.11,3.813,3.813,0,0,0-1.165,2.8,3.869,3.869,0,0,0,.4,1.72L88.39,17.3,89.9,15.784c.541-.527,1.054-1.04,1.54-1.526s.874-.86,1.151-1.138A3.853,3.853,0,0,0,90.262,12.732Z" transform="translate(-69.481 -5.615)"/>
          <path class="cls-1" d="M100.8,2.562H64.926A2.972,2.972,0,0,0,61.957,5.53V21.012a2.972,2.972,0,0,0,2.969,2.969h2.428l-2.428,3.662,5.785-3.662H100.8a2.972,2.972,0,0,0,2.969-2.969V5.53A2.972,2.972,0,0,0,100.8,2.562ZM77.315,20.138H64.441c1.068-1.484,2.095-2.9,3.066-4.259.4-.583.832-1.165,1.262-1.762S69.615,12.952,70,12.4s.763-1.068,1.11-1.54.638-.874.874-1.207h-7.8V7.029H77.037c-1.1,1.484-2.109,2.9-3.066,4.259-.4.583-.832,1.179-1.262,1.762s-.832,1.165-1.221,1.72-.763,1.068-1.11,1.54-.638.874-.874,1.207h7.8l.014,2.622Zm6.673-2.622a3.813,3.813,0,0,0,2.178-1.124l.9-.9L88.9,17.336l-.9.9a6.565,6.565,0,0,1-9.295,0,6.065,6.065,0,0,1-1.429-2.178,6.907,6.907,0,0,1-.472-2.469,6.6,6.6,0,0,1,.472-2.455A6.516,6.516,0,0,1,80.88,7.528a6.522,6.522,0,0,1,4.939,0A6.56,6.56,0,0,1,88,8.971l.9.9-7.269,7.269A3.753,3.753,0,0,0,83.987,17.517Zm12.707,0a3.813,3.813,0,0,0,2.178-1.124l.9-.9,1.831,1.845-.9.9a6.584,6.584,0,0,1-2.123,1.429,6.562,6.562,0,0,1-5.022,0,6.641,6.641,0,0,1-2.136-1.429,6.065,6.065,0,0,1-1.429-2.178,6.907,6.907,0,0,1-.472-2.469,6.6,6.6,0,0,1,.472-2.455A6.516,6.516,0,0,1,93.6,7.528a6.522,6.522,0,0,1,4.939,0,6.56,6.56,0,0,1,2.178,1.443l.9.9L94.35,17.142A3.7,3.7,0,0,0,96.695,17.517Z" transform="translate(-61.957 -2.562)"/>
        </g>
      </g>
      <path class="cls-1" d="M124.12,5.018a1.457,1.457,0,1,1,1.457-1.457A1.456,1.456,0,0,1,124.12,5.018Zm0-2.636A1.179,1.179,0,1,0,125.3,3.562,1.178,1.178,0,0,0,124.12,2.382Z" transform="translate(-36.986 -0.648)"/>
      <g transform="translate(86.677 2.095)">
        <path class="cls-1" d="M124.094,3.046a2.766,2.766,0,0,1,.375-.028.613.613,0,0,1,.43.125.387.387,0,0,1,.111.277.409.409,0,0,1-.277.388h0a.411.411,0,0,1,.222.305c.055.208.083.347.111.416h-.194a1.613,1.613,0,0,1-.1-.361c-.042-.208-.125-.277-.305-.291h-.18v.638h-.194V3.046Zm.194.68h.194c.208,0,.333-.111.333-.277,0-.194-.139-.277-.347-.277-.1,0-.166.014-.194.014v.541Z" transform="translate(-124.094 -3.018)"/>
      </g>
    </g>
  </g>
</svg>