<svg xmlns="http://www.w3.org/2000/svg" width="72.358" height="69" viewBox="0 0 72.358 69">
  <defs>
    <style>
      .cls-1 {
        fill: #020202;
        opacity: 0.08;
      }
    </style>
  </defs>
  <path class="cls-1" d="M16.791,36.266v5.825H31.343V73.433H0V42.091H0V36.266c0-11.827,3.4-20.61,10.115-26.1,4.643-3.8,10.52-5.728,17.469-5.728v16.79C23.813,21.223,16.791,21.223,16.791,36.266ZM68.6,21.223V4.433c-6.948,0-12.825,1.927-17.468,5.728-6.712,5.495-10.115,14.278-10.115,26.1v5.825h0V73.433H72.358V42.091H57.807V36.266C57.807,21.223,64.828,21.223,68.6,21.223Z" transform="translate(0 -4.433)"/>
</svg>
