<svg xmlns="http://www.w3.org/2000/svg" xmlns:xlink="http://www.w3.org/1999/xlink" width="44" height="44" viewBox="0 0 44 44">
  <defs>
    <clipPath id="clip-path">
      <circle id="Ellipse_2" data-name="Ellipse 2" cx="22" cy="22" r="22" transform="translate(193 189)" fill="#fff"/>
    </clipPath>
  </defs>
  <g id="Telegran" transform="translate(-193 -189)" clip-path="url(#clip-path)">
    <g id="logotipo-do-telegram" transform="translate(197 188.003)">
      <path id="Path_1" data-name="Path 1" d="M25.334,38.146a1.246,1.246,0,0,1-.7-.215l-7.913-5.367-4.244,3.054a1.246,1.246,0,0,1-1.932-.693L8.415,26.849.8,23.938a1.246,1.246,0,0,1-.016-2.321L29.737,10.1a1.246,1.246,0,0,1,.411-.1,1.3,1.3,0,0,1,.15,0,1.242,1.242,0,0,1,.8.354c.023.023.045.046.066.07a1.241,1.241,0,0,1,.3.729,1.273,1.273,0,0,1,0,.2,1.226,1.226,0,0,1-.02.142L26.558,37.134a1.246,1.246,0,0,1-1.224,1.012Zm-7.917-8.121,7.048,4.781,3.8-19.952L14.534,28.07,17.383,30Zm-5.868-1.063.944,3.576,2.033-1.463-2.662-1.806A1.241,1.241,0,0,1,11.549,28.962ZM4.673,22.751l5.228,2a1.246,1.246,0,0,1,.76.846l.663,2.513a1.246,1.246,0,0,1,.375-.768L24.785,14.748Z" transform="translate(0 0)"/>
    </g>
  </g>
</svg>
